<svg xmlns="http://www.w3.org/2000/svg" viewBox="0 0 960 680" width="960" height="680">
  <style>
    text { font-family: "Courier New", "Lucida Console", "Microsoft YaHei", "SimHei", monospace; fill: #caf0f8; }
  </style>
  <defs>
    <pattern id="grid" width="30" height="30" patternUnits="userSpaceOnUse">
      <path d="M 30 0 L 0 0 0 30" fill="none" stroke="#112240" stroke-width="0.5"/>
    </pattern>
    <marker id="arrow-cyan" markerWidth="8" markerHeight="6" refX="7" refY="3" orient="auto"><polygon points="0 0, 8 3, 0 6" fill="#00b4d8"/></marker>
    <marker id="arrow-green" markerWidth="8" markerHeight="6" refX="7" refY="3" orient="auto"><polygon points="0 0, 8 3, 0 6" fill="#06d6a0"/></marker>
    <marker id="arrow-orange" markerWidth="8" markerHeight="6" refX="7" refY="3" orient="auto"><polygon points="0 0, 8 3, 0 6" fill="#f77f00"/></marker>
    <marker id="arrow-white" markerWidth="8" markerHeight="6" refX="7" refY="3" orient="auto"><polygon points="0 0, 8 3, 0 6" fill="#ffffff"/></marker>
  </defs>
  <rect width="960" height="680" fill="#0a1628"/>
  <rect width="960" height="680" fill="url(#grid)" opacity="0.6"/>
  <text x="480" y="28" text-anchor="middle" fill="#caf0f8" font-size="18" font-weight="700" letter-spacing="0.05em">ORG MEMORY MCP — DATA FLOW &amp; MEMORY ARCHITECTURE</text>
<rect x="20" y="50" width="430" height="270" rx="2" fill="#0d1f3c" stroke="#00b4d8" stroke-width="1"/>
<text x="32" y="66" fill="#00b4d8" font-size="10" font-weight="700" letter-spacing="0.05em">01 // WRITE PATH — CONVERSATION INGESTION</text>
<rect x="50" y="85" width="140" height="45" rx="2" fill="#0d1f3c" stroke="#00b4d8" stroke-width="1"/>
<text x="120" y="103" text-anchor="middle" fill="#caf0f8" font-size="11" font-weight="700">AI AGENT</text>
<text x="120" y="118" text-anchor="middle" fill="#48cae4" font-size="9">MCP Client</text>
<rect x="50" y="155" width="190" height="50" rx="2" fill="#0d1f3c" stroke="#06d6a0" stroke-width="1"/>
<text x="145" y="167" text-anchor="middle" fill="#06d6a0" font-size="9" opacity="0.8">TOOL</text>
<text x="145" y="185" text-anchor="middle" fill="#caf0f8" font-size="12" font-weight="700">save_conversation</text>
<text x="145" y="199" text-anchor="middle" fill="#48cae4" font-size="9">messages[], sessionId</text>
<rect x="280" y="155" width="150" height="50" rx="2" fill="#0d1f3c" stroke="#00b4d8" stroke-width="1"/>
<text x="355" y="177" text-anchor="middle" fill="#caf0f8" font-size="12" font-weight="700">CreateEvent</text>
<text x="355" y="193" text-anchor="middle" fill="#48cae4" font-size="9">AWS AgentCore API</text>
<rect x="280" y="235" width="150" height="50" rx="2" fill="#0d1f3c" stroke="#00b4d8" stroke-width="1" stroke-dasharray="6,3"/>
<text x="355" y="247" text-anchor="middle" fill="#48cae4" font-size="9" opacity="0.8">STORAGE</text>
<text x="355" y="265" text-anchor="middle" fill="#caf0f8" font-size="12" font-weight="700">Short-Term Events</text>
<text x="355" y="279" text-anchor="middle" fill="#48cae4" font-size="9">by session ID</text>
<line x1="120" y1="130" x2="145" y2="155" stroke="#00b4d8" stroke-width="1" marker-end="url(#arrow-cyan)"/>
<rect x="56" y="140" width="52" height="8" rx="1" fill="#0a1628" opacity="0.95"/>
<text x="82" y="147" text-anchor="middle" fill="#00b4d8" font-size="7">messages</text>
<line x1="240" y1="180" x2="280" y2="180" stroke="#00b4d8" stroke-width="1" marker-end="url(#arrow-cyan)"/>
<rect x="243" y="170" width="76" height="8" rx="1" fill="#0a1628" opacity="0.95"/>
<text x="281" y="177" text-anchor="middle" fill="#00b4d8" font-size="7">AWS SDK call</text>
<line x1="355" y1="205" x2="355" y2="235" stroke="#00b4d8" stroke-width="1" marker-end="url(#arrow-cyan)"/>
<rect x="318" y="218" width="60" height="8" rx="1" fill="#0a1628" opacity="0.95"/>
<text x="348" y="225" text-anchor="middle" fill="#00b4d8" font-size="7">persist</text>
<rect x="480" y="50" width="460" height="160" rx="2" fill="#0d1f3c" stroke="#f77f00" stroke-width="1"/>
<text x="492" y="66" fill="#f77f00" font-size="10" font-weight="700" letter-spacing="0.05em">02 // AUTO-EXTRACTION PIPELINE (ASYNC)</text>
<rect x="505" y="75" width="130" height="50" rx="2" fill="#0d1f3c" stroke="#00b4d8" stroke-width="1"/>
<text x="570" y="91" text-anchor="middle" fill="#00b4d8" font-size="9" font-weight="700">Semantic Strategy</text>
<text x="570" y="108" text-anchor="middle" fill="#48cae4" font-size="8">Extracts facts &amp; concepts</text>
<rect x="670" y="75" width="130" height="50" rx="2" fill="#0d1f3c" stroke="#f77f00" stroke-width="1"/>
<text x="735" y="91" text-anchor="middle" fill="#f77f00" font-size="9" font-weight="700">UserPreference</text>
<text x="735" y="108" text-anchor="middle" fill="#48cae4" font-size="8">Extracts style &amp; prefs</text>
<rect x="835" y="75" width="130" height="50" rx="2" fill="#0d1f3c" stroke="#06d6a0" stroke-width="1"/>
<text x="900" y="91" text-anchor="middle" fill="#06d6a0" font-size="9" font-weight="700">Summary Strategy</text>
<text x="900" y="108" text-anchor="middle" fill="#48cae4" font-size="8">Creates session summaries</text>
<rect x="560" y="145" width="300" height="50" rx="2" fill="#0d1f3c" stroke="#06d6a0" stroke-width="1"/>
<text x="710" y="167" text-anchor="middle" fill="#caf0f8" font-size="12" font-weight="700">Long-Term Memory Records</text>
<text x="710" y="183" text-anchor="middle" fill="#48cae4" font-size="9">/org/* /user/* /project/* /strategy/*</text>
<line x1="570" y1="125" x2="610" y2="145" stroke="#f77f00" stroke-width="0.8" marker-end="url(#arrow-orange)"/>
<line x1="735" y1="125" x2="810" y2="145" stroke="#f77f00" stroke-width="0.8" marker-end="url(#arrow-orange)"/>
<line x1="900" y1="125" x2="1010" y2="145" stroke="#f77f00" stroke-width="0.8" marker-end="url(#arrow-orange)"/>
<rect x="470" y="130" width="120" height="20" rx="2" fill="#f77f00" stroke="#f77f00" stroke-width="0.5"/>
<text x="530" y="144" text-anchor="middle" fill="#0a1628" font-size="8" font-weight="700">trigger_extraction</text>
<line x1="430" y1="260" x2="470" y2="140" stroke="#f77f00" stroke-width="1" marker-end="url(#arrow-orange)"/>
<line x1="590" y1="140" x2="505" y2="100" stroke="#f77f00" stroke-width="0.8"/>
<line x1="590" y1="140" x2="670" y2="100" stroke="#f77f00" stroke-width="0.8"/>
<line x1="590" y1="140" x2="835" y2="100" stroke="#f77f00" stroke-width="0.8"/>
<rect x="20" y="340" width="430" height="230" rx="2" fill="#0d1f3c" stroke="#06d6a0" stroke-width="1"/>
<text x="32" y="356" fill="#06d6a0" font-size="10" font-weight="700" letter-spacing="0.05em">03 // READ PATH — CONTEXT RETRIEVAL</text>
<rect x="50" y="375" width="140" height="45" rx="2" fill="#0d1f3c" stroke="#00b4d8" stroke-width="1"/>
<text x="120" y="393" text-anchor="middle" fill="#caf0f8" font-size="11" font-weight="700">AI AGENT</text>
<text x="120" y="408" text-anchor="middle" fill="#48cae4" font-size="9">needs context</text>
<rect x="50" y="445" width="190" height="50" rx="2" fill="#0d1f3c" stroke="#06d6a0" stroke-width="1"/>
<text x="145" y="457" text-anchor="middle" fill="#06d6a0" font-size="9" opacity="0.8">TOOL</text>
<text x="145" y="475" text-anchor="middle" fill="#caf0f8" font-size="12" font-weight="700">retrieve_context</text>
<text x="145" y="489" text-anchor="middle" fill="#48cae4" font-size="9">query + min_score</text>
<rect x="50" y="520" width="170" height="35" rx="2" fill="#0d1f3c" stroke="#00b4d8" stroke-width="1"/>
<text x="135" y="534" text-anchor="middle" fill="#caf0f8" font-size="10" font-weight="700">listEvents (session)</text>
<text x="135" y="548" text-anchor="middle" fill="#48cae4" font-size="8">recent conversation</text>
<rect x="250" y="520" width="180" height="35" rx="2" fill="#0d1f3c" stroke="#06d6a0" stroke-width="1"/>
<text x="340" y="534" text-anchor="middle" fill="#caf0f8" font-size="10" font-weight="700">retrieveMemoryRecords</text>
<text x="340" y="548" text-anchor="middle" fill="#48cae4" font-size="8">semantic search org + strategy</text>
<line x1="130" y1="495" x2="135" y2="520" stroke="#00b4d8" stroke-width="1" stroke-dasharray="4,2" marker-end="url(#arrow-cyan)"/>
<line x1="160" y1="495" x2="340" y2="520" stroke="#06d6a0" stroke-width="1" stroke-dasharray="4,2" marker-end="url(#arrow-green)"/>
<rect x="480" y="230" width="460" height="180" rx="2" fill="#0d1f3c" stroke="#00b4d8" stroke-width="1"/>
<text x="492" y="246" fill="#00b4d8" font-size="10" font-weight="700" letter-spacing="0.05em">04 // NAMESPACE HIERARCHY</text>
<text x="505" y="260" fill="#00b4d8" font-size="10" font-weight="700">/org/{orgId}/</text>
<text x="535" y="285" fill="#06d6a0" font-size="10" font-weight="400">/user/{actorId}/</text>
<text x="535" y="310" fill="#06d6a0" font-size="10" font-weight="400">/project/{projectId}/</text>
<text x="535" y="335" fill="#f77f00" font-size="10" font-weight="400">/shared/</text>
<text x="505" y="360" fill="#f77f00" font-size="10" font-weight="700">/strategy/</text>
<text x="535" y="385" fill="#48cae4" font-size="10" font-weight="400">/{strategyId}/semantic/</text>
<text x="535" y="410" fill="#48cae4" font-size="10" font-weight="400">/{strategyId}/userpreference/</text>
<rect x="700" y="257" width="90" height="16" rx="2" fill="#f77f00" fill-opacity="0.15" stroke="#f77f00" stroke-width="0.5"/>
<text x="745" y="268" text-anchor="middle" fill="#f77f00" font-size="8">PRIVATE</text>
<rect x="700" y="282" width="90" height="16" rx="2" fill="#06d6a0" fill-opacity="0.15" stroke="#06d6a0" stroke-width="0.5"/>
<text x="745" y="293" text-anchor="middle" fill="#06d6a0" font-size="8">PRIVATE (manual)</text>
<rect x="700" y="307" width="90" height="16" rx="2" fill="#06d6a0" fill-opacity="0.15" stroke="#06d6a0" stroke-width="0.5"/>
<text x="745" y="318" text-anchor="middle" fill="#06d6a0" font-size="8">SHARED (team)</text>
<rect x="700" y="332" width="90" height="16" rx="2" fill="#f77f00" fill-opacity="0.15" stroke="#f77f00" stroke-width="0.5"/>
<text x="745" y="343" text-anchor="middle" fill="#f77f00" font-size="8">ORG-WIDE (admin)</text>
<rect x="700" y="357" width="90" height="16" rx="2" fill="#f77f00" fill-opacity="0.15" stroke="#f77f00" stroke-width="0.5"/>
<text x="745" y="368" text-anchor="middle" fill="#f77f00" font-size="8">READ-ONLY</text>
<rect x="700" y="382" width="90" height="16" rx="2" fill="#48cae4" fill-opacity="0.15" stroke="#48cae4" stroke-width="0.5"/>
<text x="745" y="393" text-anchor="middle" fill="#48cae4" font-size="8">facts &amp; concepts</text>
<rect x="700" y="407" width="90" height="16" rx="2" fill="#48cae4" fill-opacity="0.15" stroke="#48cae4" stroke-width="0.5"/>
<text x="745" y="418" text-anchor="middle" fill="#48cae4" font-size="8">style &amp; prefs</text>
<line x1="120" y1="420" x2="145" y2="445" stroke="#00b4d8" stroke-width="1" marker-end="url(#arrow-cyan)"/>
<rect x="56" y="430" width="40" height="8" rx="1" fill="#0a1628" opacity="0.95"/>
<text x="76" y="437" text-anchor="middle" fill="#00b4d8" font-size="7">query</text>
<line x1="430" y1="260" x2="700" y2="420" stroke="#f77f00" stroke-width="1" marker-end="url(#arrow-orange)"/>
<rect x="700" y="570" width="240" height="60" fill="#0d1f3c" stroke="#00b4d8" stroke-width="1"/>
<line x1="700" y1="585" x2="940" y2="585" stroke="#00b4d8" stroke-width="0.5"/>
<text x="820" y="582" text-anchor="middle" fill="#caf0f8" font-size="10">MEMORY ARCHITECTURE</text>
<text x="820" y="618" text-anchor="middle" fill="#00b4d8" font-size="13" font-weight="700">ORG MEMORY MCP</text>
<text x="480" y="440" fill="#48cae4" font-size="9" font-weight="700" letter-spacing="0.05em">FLOW LEGEND</text>
<line x1="480" y1="458" x2="510" y2="458" stroke="#00b4d8" stroke-width="1" stroke-dasharray="none"/>
<text x="518" y="461" fill="#48cae4" font-size="9">Write / control flow</text>
<line x1="480" y1="472" x2="510" y2="472" stroke="#06d6a0" stroke-width="1" stroke-dasharray="none"/>
<text x="518" y="475" fill="#48cae4" font-size="9">Read / retrieval flow</text>
<line x1="480" y1="486" x2="510" y2="486" stroke="#f77f00" stroke-width="1" stroke-dasharray="none"/>
<text x="518" y="489" fill="#48cae4" font-size="9">Async extraction</text>
<line x1="480" y1="500" x2="510" y2="500" stroke="#48cae4" stroke-width="1" stroke-dasharray="4,2"/>
<text x="518" y="503" fill="#48cae4" font-size="9">Dashed = async / parallel</text>
</svg>