<svg xmlns="http://www.w3.org/2000/svg" viewBox="0 0 960 750" width="960" height="750">
  <style>
    text { font-family: "Helvetica Neue", Helvetica, Arial, "PingFang SC", "Microsoft YaHei", "Microsoft JhengHei", "SimHei", sans-serif; }
  </style>
  <defs>
    <marker id="arrow-blue" markerWidth="10" markerHeight="7" refX="9" refY="3.5" orient="auto"><polygon points="0 0, 10 3.5, 0 7" fill="#2563eb"/></marker>
    <marker id="arrow-orange" markerWidth="10" markerHeight="7" refX="9" refY="3.5" orient="auto"><polygon points="0 0, 10 3.5, 0 7" fill="#ea580c"/></marker>
    <marker id="arrow-green" markerWidth="10" markerHeight="7" refX="9" refY="3.5" orient="auto"><polygon points="0 0, 10 3.5, 0 7" fill="#059669"/></marker>
    <marker id="arrow-green-dash" markerWidth="10" markerHeight="7" refX="9" refY="3.5" orient="auto"><polygon points="0 0, 10 3.5, 0 7" fill="#059669"/></marker>
    <marker id="arrow-purple" markerWidth="10" markerHeight="7" refX="9" refY="3.5" orient="auto"><polygon points="0 0, 10 3.5, 0 7" fill="#7c3aed"/></marker>
    <marker id="arrow-gray" markerWidth="10" markerHeight="7" refX="9" refY="3.5" orient="auto"><polygon points="0 0, 10 3.5, 0 7" fill="#6b7280"/></marker>
  </defs>
  <rect width="960" height="750" fill="#ffffff"/>
  <text x="480" y="30" text-anchor="middle" fill="#111827" font-size="20" font-weight="700">Org Memory MCP — System Architecture</text>
<rect x="20" y="50" width="710" height="110" rx="6" fill="#f8fafc" stroke="#d1d5db" stroke-width="1" stroke-dasharray="6,3"/>
<text x="32" y="66" fill="#6b7280" font-size="10" font-weight="700" letter-spacing="0.06em">MCP CLIENTS (launched as child process via stdin/stdout)</text>
<rect x="40" y="80" width="140" height="50" rx="6" fill="#ffffff" stroke="#3b82f6" stroke-width="1.5"/>
<circle cx="54" cy="90" r="3" fill="#ef4444"/>
<circle cx="64" cy="90" r="3" fill="#f59e0b"/>
<circle cx="74" cy="90" r="3" fill="#10b981"/>
<text x="110" y="116" text-anchor="middle" fill="#111827" font-size="13" font-weight="600">Cursor</text>
<rect x="200" y="80" width="140" height="50" rx="6" fill="#ffffff" stroke="#f97316" stroke-width="1.5"/>
<circle cx="214" cy="90" r="3" fill="#ef4444"/>
<circle cx="224" cy="90" r="3" fill="#f59e0b"/>
<circle cx="234" cy="90" r="3" fill="#10b981"/>
<text x="270" y="116" text-anchor="middle" fill="#111827" font-size="13" font-weight="600">Cline</text>
<rect x="360" y="80" width="140" height="50" rx="6" fill="#ffffff" stroke="#6366f1" stroke-width="1.5"/>
<circle cx="374" cy="90" r="3" fill="#ef4444"/>
<circle cx="384" cy="90" r="3" fill="#f59e0b"/>
<circle cx="394" cy="90" r="3" fill="#10b981"/>
<text x="430" y="116" text-anchor="middle" fill="#111827" font-size="13" font-weight="600">GitHub Copilot</text>
<rect x="520" y="80" width="140" height="50" rx="6" fill="#ffffff" stroke="#d97757" stroke-width="1.5"/>
<circle cx="534" cy="90" r="3" fill="#ef4444"/>
<circle cx="544" cy="90" r="3" fill="#f59e0b"/>
<circle cx="554" cy="90" r="3" fill="#10b981"/>
<text x="590" y="116" text-anchor="middle" fill="#111827" font-size="13" font-weight="600">Claude Desktop</text>
<rect x="20" y="200" width="710" height="150" rx="6" fill="#eff6ff" stroke="#bfdbfe" stroke-width="1" stroke-dasharray="6,3"/>
<text x="32" y="216" fill="#2563eb" font-size="10" font-weight="700" letter-spacing="0.06em">MCP SERVER (OrgMemoryMcpServer)</text>
<rect x="60" y="230" width="630" height="105" rx="8" fill="#ffffff" stroke="#d1d5db" stroke-width="1.5"/>
<text x="375" y="248" text-anchor="middle" fill="#111827" font-size="13" font-weight="700">OrgMemoryMcpServer</text>
<text x="375" y="265" text-anchor="middle" fill="#6b7280" font-size="11">Handles MCP protocol — 13 tools + 1 prompt over stdio transport</text>
<rect x="80" y="278" width="170" height="48" rx="4" fill="#2563eb" fill-opacity="0.08" stroke="#2563eb" stroke-width="0.8" stroke-opacity="0.2"/>
<text x="165" y="292" text-anchor="middle" fill="#2563eb" font-size="10" font-weight="700">Primary Tools</text>
<text x="165" y="306" text-anchor="middle" fill="#2563eb" font-size="8" opacity="0.7">save_conversation, retrieve_context</text>
<rect x="260" y="278" width="170" height="48" rx="4" fill="#059669" fill-opacity="0.08" stroke="#059669" stroke-width="0.8" stroke-opacity="0.2"/>
<text x="345" y="292" text-anchor="middle" fill="#059669" font-size="10" font-weight="700">Memory CRUD</text>
<text x="345" y="306" text-anchor="middle" fill="#059669" font-size="8" opacity="0.7">create / search / get / update / delete</text>
<rect x="440" y="278" width="170" height="48" rx="4" fill="#ea580c" fill-opacity="0.08" stroke="#ea580c" stroke-width="0.8" stroke-opacity="0.2"/>
<text x="525" y="292" text-anchor="middle" fill="#ea580c" font-size="10" font-weight="700">Diagnostics</text>
<text x="525" y="306" text-anchor="middle" fill="#ea580c" font-size="8" opacity="0.7">status, extraction, list_jobs, profile</text>
<rect x="620" y="278" width="55" height="48" rx="4" fill="#7c3aed" fill-opacity="0.08" stroke="#7c3aed" stroke-width="0.8" stroke-opacity="0.2"/>
<text x="647" y="292" text-anchor="middle" fill="#7c3aed" font-size="10" font-weight="700">Profile</text>
<text x="647" y="306" text-anchor="middle" fill="#7c3aed" font-size="8" opacity="0.7">Dashboard</text>
<rect x="20" y="390" width="710" height="100" rx="6" fill="#fef2f2" stroke="#fee2e2" stroke-width="1" stroke-dasharray="6,3"/>
<text x="32" y="406" fill="#dc2626" font-size="10" font-weight="700" letter-spacing="0.06em">AWS INTEGRATION (BedrockMemoryClient)</text>
<rect x="180" y="420" width="390" height="55" rx="8" fill="#ffffff" stroke="#d1d5db" stroke-width="1.5"/>
<text x="375" y="440" text-anchor="middle" fill="#111827" font-size="13" font-weight="700">BedrockMemoryClient</text>
<text x="375" y="457" text-anchor="middle" fill="#6b7280" font-size="11">@aws-sdk/client-bedrock-agentcore wrapper</text>
<rect x="20" y="530" width="710" height="180" rx="6" fill="#f0fdf4" stroke="#dcfce7" stroke-width="1" stroke-dasharray="6,3"/>
<text x="32" y="546" fill="#059669" font-size="10" font-weight="700" letter-spacing="0.06em">AWS BEDROCK AGENTCORE MEMORY</text>
<rect x="50" y="560" width="290" height="125" rx="8" fill="#ffffff" stroke="#059669" stroke-width="1.5" stroke-dasharray="6,3"/>
<text x="195" y="580" text-anchor="middle" fill="#111827" font-size="12" font-weight="700">Short-Term Memory</text>
<text x="195" y="598" text-anchor="middle" fill="#6b7280" font-size="9">Events by Session</text>
<rect x="60" y="612" width="270" height="15" rx="3" fill="#f0fdf4" stroke="none"/>
<text x="66" y="623" fill="#059669" font-size="8" opacity="0.8">Session: coding-20250501-0930-abc</text>
<rect x="60" y="630" width="270" height="15" rx="3" fill="#f0fdf4" stroke="none"/>
<text x="66" y="641" fill="#059669" font-size="8" opacity="0.8">user: design system architecture</text>
<rect x="60" y="648" width="270" height="15" rx="3" fill="#f0fdf4" stroke="none"/>
<text x="66" y="659" fill="#059669" font-size="8" opacity="0.8">assistant: microservices pattern</text>
<rect x="60" y="666" width="270" height="15" rx="3" fill="#f0fdf4" stroke="none"/>
<text x="66" y="677" fill="#059669" font-size="8" opacity="0.8">user: important caveat re caching</text>
<ellipse cx="515" cy="565" rx="135" ry="15" fill="#ffffff" stroke="#059669" stroke-width="1.5"/>
<rect x="390" y="565" width="250" height="80" fill="#ffffff" stroke="none"/>
<line x1="390" y1="565" x2="390" y2="645" stroke="#059669" stroke-width="1.5"/>
<line x1="640" y1="565" x2="640" y2="645" stroke="#059669" stroke-width="1.5"/>
<ellipse cx="515" cy="645" rx="135" ry="15" fill="#f0fdf4" stroke="#059669" stroke-width="1.5"/>
<text x="515" y="590" text-anchor="middle" fill="#111827" font-size="12" font-weight="700">Long-Term Memory</text>
<text x="515" y="608" text-anchor="middle" fill="#6b7280" font-size="9">Auto-extracted + Manual</text>
<ellipse cx="515" cy="600" rx="135" ry="15" fill="none" stroke="#059669" stroke-width="0.7" opacity="0.4"/>
<text x="515" y="665" text-anchor="middle" fill="#059669" font-size="8">/org/* /user/* /project/* /strategy/*</text>
<rect x="760" y="210" width="170" height="150" rx="6" fill="#faf5ff" stroke="#ede9fe" stroke-width="1" stroke-dasharray="6,3"/>
<text x="845" y="226" text-anchor="middle" fill="#7c3aed" font-size="10" font-weight="700" letter-spacing="0.06em">MEMORY LENS</text>
<text x="845" y="240" text-anchor="middle" fill="#6b7280" font-size="9">Local Dashboard</text>
<rect x="770" y="250" width="48" height="18" rx="3" fill="#7c3aed" fill-opacity="0.1" stroke="#7c3aed" stroke-width="0.5" stroke-opacity="0.3"/>
<text x="794" y="262" text-anchor="middle" fill="#7c3aed" font-size="8">Now</text>
<rect x="825" y="250" width="48" height="18" rx="3" fill="#7c3aed" fill-opacity="0.1" stroke="#7c3aed" stroke-width="0.5" stroke-opacity="0.3"/>
<text x="849" y="262" text-anchor="middle" fill="#7c3aed" font-size="8">Explore</text>
<rect x="880" y="250" width="48" height="18" rx="3" fill="#7c3aed" fill-opacity="0.1" stroke="#7c3aed" stroke-width="0.5" stroke-opacity="0.3"/>
<text x="904" y="262" text-anchor="middle" fill="#7c3aed" font-size="8">Profile</text>
<rect x="770" y="280" width="150" height="2" rx="1" fill="#ede9fe"/>
<rect x="770" y="288" width="80" height="2" rx="1" fill="#ede9fe" opacity="0.4"/>
<rect x="770" y="298" width="150" height="2" rx="1" fill="#ede9fe"/>
<rect x="770" y="306" width="80" height="2" rx="1" fill="#ede9fe" opacity="0.4"/>
<rect x="770" y="316" width="150" height="2" rx="1" fill="#ede9fe"/>
<rect x="770" y="324" width="80" height="2" rx="1" fill="#ede9fe" opacity="0.4"/>
<rect x="770" y="334" width="150" height="2" rx="1" fill="#ede9fe"/>
<rect x="770" y="342" width="80" height="2" rx="1" fill="#ede9fe" opacity="0.4"/>
<line x1="110" y1="130" x2="110" y2="230" stroke="#2563eb" stroke-width="1.5" marker-end="url(#arrow-blue)"/>
<rect x="94" y="143" width="32" height="8" rx="2" fill="#ffffff" opacity="0.95"/>
<text x="110" y="150" text-anchor="middle" fill="#2563eb" font-size="7" font-weight="600">MCP</text>
<line x1="270" y1="130" x2="270" y2="230" stroke="#2563eb" stroke-width="1.5" marker-end="url(#arrow-blue)"/>
<rect x="254" y="143" width="32" height="8" rx="2" fill="#ffffff" opacity="0.95"/>
<text x="270" y="150" text-anchor="middle" fill="#2563eb" font-size="7" font-weight="600">MCP</text>
<line x1="430" y1="130" x2="430" y2="230" stroke="#2563eb" stroke-width="1.5" marker-end="url(#arrow-blue)"/>
<rect x="414" y="143" width="32" height="8" rx="2" fill="#ffffff" opacity="0.95"/>
<text x="430" y="150" text-anchor="middle" fill="#2563eb" font-size="7" font-weight="600">MCP</text>
<line x1="590" y1="130" x2="590" y2="230" stroke="#2563eb" stroke-width="1.5" marker-end="url(#arrow-blue)"/>
<rect x="574" y="143" width="32" height="8" rx="2" fill="#ffffff" opacity="0.95"/>
<text x="590" y="150" text-anchor="middle" fill="#2563eb" font-size="7" font-weight="600">MCP</text>
<line x1="375" y1="335" x2="375" y2="420" stroke="#ea580c" stroke-width="1.5" marker-end="url(#arrow-orange)"/>
<rect x="336" y="342" width="78" height="8" rx="2" fill="#ffffff" opacity="0.95"/>
<text x="375" y="349" text-anchor="middle" fill="#ea580c" font-size="7" font-weight="600">AWS SDK</text>
<line x1="250" y1="475" x2="195" y2="560" stroke="#059669" stroke-width="1.5" marker-end="url(#arrow-green)"/>
<rect x="176" y="480" width="68" height="8" rx="2" fill="#ffffff" opacity="0.95"/>
<text x="210" y="487" text-anchor="middle" fill="#059669" font-size="7" font-weight="600">CreateEvent</text>
<line x1="460" y1="475" x2="525" y2="560" stroke="#059669" stroke-width="1.5" stroke-dasharray="5,3" marker-end="url(#arrow-green-dash)"/>
<rect x="488" y="480" width="68" height="8" rx="2" fill="#ffffff" opacity="0.95"/>
<text x="522" y="487" text-anchor="middle" fill="#059669" font-size="7" font-weight="600">BatchCRUD</text>
<path d="M 340 630 C 380 630, 475 610, 515 610" stroke="#7c3aed" stroke-width="1.5" fill="none" marker-end="url(#arrow-purple)"/>
<rect x="370" y="678" width="50" height="8" rx="2" fill="#ffffff" opacity="0.95"/>
<text x="395" y="685" text-anchor="middle" fill="#7c3aed" font-size="7" font-weight="600">extract</text>
<line x1="730" y1="280" x2="760" y2="260" stroke="#6b7280" stroke-width="1.5" marker-end="url(#arrow-gray)"/>
<rect x="736" y="288" width="52" height="8" rx="2" fill="#ffffff" opacity="0.95"/>
<text x="762" y="295" text-anchor="middle" fill="#6b7280" font-size="7" font-weight="600">HTTP :3001</text>
<text x="20" y="660" fill="#6b7280" font-size="9" font-weight="600">LEGEND</text>
<line x1="20" y1="674" x2="48" y2="674" stroke="#2563eb" stroke-width="1.5" marker-end="url(#arrow-blue)"/>
<text x="56" y="678" fill="#6b7280" font-size="9">MCP protocol (stdio)</text>
<line x1="20" y1="688" x2="48" y2="688" stroke="#ea580c" stroke-width="1.5" marker-end="url(#arrow-orange)"/>
<text x="56" y="692" fill="#6b7280" font-size="9">AWS SDK calls</text>
<line x1="20" y1="702" x2="48" y2="702" stroke="#059669" stroke-width="1.5" marker-end="url(#arrow-green)"/>
<text x="56" y="706" fill="#6b7280" font-size="9">Write / Read path</text>
<line x1="20" y1="716" x2="48" y2="716" stroke="#7c3aed" stroke-width="1.5" marker-end="url(#arrow-purple)"/>
<text x="56" y="720" fill="#6b7280" font-size="9">Auto-extraction (async)</text>
<line x1="20" y1="730" x2="48" y2="730" stroke="#6b7280" stroke-width="1.5" marker-end="url(#arrow-gray)"/>
<text x="56" y="734" fill="#6b7280" font-size="9">Internal HTTP</text>
</svg>