<svg xmlns="http://www.w3.org/2000/svg" viewBox="0 0 960 750" width="960" height="750">
  <style>
    text { font-family: "SF Mono", "Fira Code", "Cascadia Code", "Courier New", "Microsoft YaHei", "SimHei", monospace; fill: #e2e8f0; }
  </style>
  <defs>
    <linearGradient id="bg-grad" x1="0%" y1="0%" x2="100%" y2="100%">
      <stop offset="0%" stop-color="#0f0f1a"/>
      <stop offset="100%" stop-color="#1a1a2e"/>
    </linearGradient>
    <marker id="arrow-purple" markerWidth="8" markerHeight="6" refX="7" refY="3" orient="auto"><polygon points="0 0, 8 3, 0 6" fill="#a855f7"/></marker>
    <marker id="arrow-green" markerWidth="8" markerHeight="6" refX="7" refY="3" orient="auto"><polygon points="0 0, 8 3, 0 6" fill="#10b981"/></marker>
    <marker id="arrow-orange" markerWidth="8" markerHeight="6" refX="7" refY="3" orient="auto"><polygon points="0 0, 8 3, 0 6" fill="#f97316"/></marker>
    <marker id="arrow-blue" markerWidth="8" markerHeight="6" refX="7" refY="3" orient="auto"><polygon points="0 0, 8 3, 0 6" fill="#3b82f6"/></marker>
    <marker id="arrow-gold" markerWidth="8" markerHeight="6" refX="7" refY="3" orient="auto"><polygon points="0 0, 8 3, 0 6" fill="#eab308"/></marker>
    <marker id="arrow-red" markerWidth="8" markerHeight="6" refX="7" refY="3" orient="auto"><polygon points="0 0, 8 3, 0 6" fill="#ef4444"/></marker>
    <filter id="glow"><feGaussianBlur stdDeviation="2" result="blur"/><feMerge><feMergeNode in="blur"/><feMergeNode in="SourceGraphic"/></feMerge></filter>
  </defs>
  <rect width="960" height="750" fill="url(#bg-grad)"/>
  <rect x="20" y="10" width="920" height="32" rx="4" fill="#1e293b" stroke="#334155" stroke-width="1"/>
  <circle cx="36" cy="26" r="5" fill="#ef4444"/>
  <circle cx="52" cy="26" r="5" fill="#f59e0b"/>
  <circle cx="68" cy="26" r="5" fill="#10b981"/>
  <text x="480" y="30" text-anchor="middle" fill="#94a3b8" font-size="10">org-memory-mcp — 13 MCP tools</text>
<rect x="380" y="60" width="200" height="45" rx="6" fill="#1e1b4b" stroke="#a855f7" stroke-width="1.5" filter="url(#glow)"/>
<text x="480" y="78" text-anchor="middle" fill="#a855f7" font-size="10" opacity="0.7">LLM</text>
<text x="480" y="95" text-anchor="middle" fill="#e2e8f0" font-size="13" font-weight="700">AI Coding Agent</text>
<rect x="20" y="125" width="290" height="135" rx="4" fill="#0f172a" stroke="#a855f7" stroke-width="1"/>
<text x="165" y="143" text-anchor="middle" fill="#a855f7" font-size="10" font-weight="700" letter-spacing="0.02em">PRIMARY</text>
<rect x="40" y="155" width="250" height="40" rx="3" fill="#1e1b4b" stroke="#a855f7" stroke-width="0.5"/>
<text x="48" y="171" fill="#a855f7" font-size="10" font-weight="700">save_conversation</text>
<text x="48" y="186" fill="#64748b" font-size="8">Store chat turns</text>
<rect x="40" y="195" width="250" height="40" rx="3" fill="#1e1b4b" stroke="#a855f7" stroke-width="0.5"/>
<text x="48" y="211" fill="#a855f7" font-size="10" font-weight="700">retrieve_context</text>
<text x="48" y="226" fill="#64748b" font-size="8">Search + session + LTM</text>
<rect x="20" y="280" width="290" height="240" rx="4" fill="#0f172a" stroke="#10b981" stroke-width="1"/>
<text x="165" y="298" text-anchor="middle" fill="#10b981" font-size="10" font-weight="700" letter-spacing="0.02em">MEMORY CRUD</text>
<rect x="40" y="310" width="250" height="33" rx="3" fill="#052e16" stroke="#10b981" stroke-width="0.5"/>
<text x="48" y="324" fill="#10b981" font-size="10" font-weight="700">create_memory</text>
<text x="48" y="336" fill="#64748b" font-size="8">Manual LTM write</text>
<rect x="40" y="350" width="250" height="33" rx="3" fill="#052e16" stroke="#10b981" stroke-width="0.5"/>
<text x="48" y="364" fill="#10b981" font-size="10" font-weight="700">get_memory</text>
<text x="48" y="376" fill="#64748b" font-size="8">Record by ID</text>
<rect x="40" y="390" width="250" height="33" rx="3" fill="#052e16" stroke="#10b981" stroke-width="0.5"/>
<text x="48" y="404" fill="#10b981" font-size="10" font-weight="700">get_memories</text>
<text x="48" y="416" fill="#64748b" font-size="8">List / filter records</text>
<rect x="40" y="430" width="250" height="33" rx="3" fill="#052e16" stroke="#10b981" stroke-width="0.5"/>
<text x="48" y="444" fill="#10b981" font-size="10" font-weight="700">update_memory</text>
<text x="48" y="456" fill="#64748b" font-size="8">Modify record</text>
<rect x="40" y="470" width="250" height="33" rx="3" fill="#052e16" stroke="#10b981" stroke-width="0.5"/>
<text x="48" y="484" fill="#10b981" font-size="10" font-weight="700">delete_memory</text>
<text x="48" y="496" fill="#64748b" font-size="8">Remove record</text>
<rect x="340" y="125" width="290" height="80" rx="4" fill="#0f172a" stroke="#3b82f6" stroke-width="1"/>
<text x="485" y="143" text-anchor="middle" fill="#3b82f6" font-size="10" font-weight="700" letter-spacing="0.02em">SEMANTIC SEARCH</text>
<rect x="360" y="155" width="250" height="40" rx="3" fill="#1e3a5f" stroke="#3b82f6" stroke-width="0.5"/>
<text x="368" y="172" fill="#3b82f6" font-size="10" font-weight="700">search_memories</text>
<text x="368" y="187" fill="#64748b" font-size="8">Query org + strategy LTM</text>
<rect x="340" y="225" width="290" height="145" rx="4" fill="#0f172a" stroke="#eab308" stroke-width="1"/>
<text x="485" y="243" text-anchor="middle" fill="#eab308" font-size="10" font-weight="700" letter-spacing="0.02em">DIAGNOSTICS</text>
<rect x="360" y="255" width="250" height="33" rx="3" fill="#1c1917" stroke="#eab308" stroke-width="0.5"/>
<text x="368" y="269" fill="#eab308" font-size="10" font-weight="700">memory_status</text>
<text x="368" y="281" fill="#64748b" font-size="8">Event/record counts, active namespaces</text>
<rect x="360" y="295" width="250" height="33" rx="3" fill="#1c1917" stroke="#eab308" stroke-width="0.5"/>
<text x="368" y="309" fill="#eab308" font-size="10" font-weight="700">trigger_extraction</text>
<text x="368" y="321" fill="#64748b" font-size="8">Force extraction job</text>
<rect x="360" y="335" width="250" height="33" rx="3" fill="#1c1917" stroke="#eab308" stroke-width="0.5"/>
<text x="368" y="349" fill="#eab308" font-size="10" font-weight="700">list_extraction_jobs</text>
<text x="368" y="361" fill="#64748b" font-size="8">Recent jobs status</text>
<rect x="340" y="390" width="290" height="75" rx="4" fill="#0f172a" stroke="#ef4444" stroke-width="1"/>
<text x="485" y="408" text-anchor="middle" fill="#ef4444" font-size="10" font-weight="700" letter-spacing="0.02em">PROFILE + UI</text>
<rect x="360" y="420" width="120" height="33" rx="3" fill="#1e1b4b" stroke="#ef4444" stroke-width="0.5"/>
<text x="368" y="434" fill="#ef4444" font-size="9" font-weight="700">get_user_profile</text>
<text x="368" y="446" fill="#64748b" font-size="7">Actor summary</text>
<rect x="500" y="420" width="120" height="33" rx="3" fill="#1e1b4b" stroke="#ef4444" stroke-width="0.5"/>
<text x="508" y="434" fill="#ef4444" font-size="9" font-weight="700">launch_dashboard</text>
<text x="508" y="446" fill="#64748b" font-size="7">Port 3001</text>
<rect x="20" y="540" width="920" height="190" rx="4" fill="#0f172a" stroke="#f97316" stroke-width="1"/>
<text x="480" y="558" text-anchor="middle" fill="#f97316" font-size="10" font-weight="700" letter-spacing="0.02em">AWS BEDROCK AGENTCORE BACKEND</text>
<rect x="330" y="570" width="300" height="40" rx="4" fill="#1c1917" stroke="#f97316" stroke-width="1"/>
<text x="480" y="588" text-anchor="middle" fill="#f97316" font-size="10" font-weight="700">BedrockMemoryClient</text>
<text x="480" y="603" text-anchor="middle" fill="#64748b" font-size="8">@aws-sdk/client-bedrock-agentcore</text>
<rect x="50" y="635" width="280" height="80" rx="4" fill="#0f172a" stroke="#a855f7" stroke-width="1" stroke-dasharray="4,2"/>
<text x="190" y="653" text-anchor="middle" fill="#a855f7" font-size="9" font-weight="700">SHORT-TERM (Events)</text>
<text x="190" y="670" text-anchor="middle" fill="#64748b" font-size="8" opacity="0.7">CreateEvent</text>
<text x="190" y="685" text-anchor="middle" fill="#64748b" font-size="8" opacity="0.7">ListEvents</text>
<text x="190" y="700" text-anchor="middle" fill="#64748b" font-size="8" opacity="0.7">by session</text>
<ellipse cx="630" cy="635" rx="130" ry="12" fill="#0f172a" stroke="#10b981" stroke-width="1"/>
<rect x="500" y="635" width="260" height="60" fill="#0f172a" stroke="none"/>
<line x1="500" y1="635" x2="500" y2="695" stroke="#10b981" stroke-width="1"/>
<line x1="760" y1="635" x2="760" y2="695" stroke="#10b981" stroke-width="1"/>
<ellipse cx="630" cy="695" rx="130" ry="12" fill="#052e16" stroke="#10b981" stroke-width="1"/>
<text x="630" y="658" text-anchor="middle" fill="#10b981" font-size="9" font-weight="700">LONG-TERM (Records)</text>
<text x="630" y="674" text-anchor="middle" fill="#64748b" font-size="8">Retrieve / BatchCRUD</text>
<line x1="165" y1="235" x2="165" y2="570" stroke="#a855f7" stroke-width="0.8" stroke-dasharray="3,2" marker-end="url(#arrow-purple)"/>
<rect x="122" y="395" width="86" height="8" rx="1" fill="#0f0f1a" opacity="0.95"/>
<text x="165" y="402" text-anchor="middle" fill="#a855f7" font-size="6">CreateEvent</text>
<path d="M 165 275 L 165 295 L 480 295 L 480 570" stroke="#a855f7" stroke-width="0.8" stroke-dasharray="3,2" fill="none" marker-end="url(#arrow-purple)"/>
<rect x="285" y="424" width="100" height="8" rx="1" fill="#0f0f1a" opacity="0.95"/>
<text x="335" y="431" text-anchor="middle" fill="#a855f7" font-size="6">List + Retrieve</text>
<line x1="290" y1="326" x2="330" y2="585" stroke="#10b981" stroke-width="0.5" stroke-dasharray="3,2"/>
<line x1="290" y1="366" x2="330" y2="585" stroke="#10b981" stroke-width="0.5" stroke-dasharray="3,2"/>
<line x1="290" y1="406" x2="330" y2="585" stroke="#10b981" stroke-width="0.5" stroke-dasharray="3,2"/>
<line x1="290" y1="446" x2="330" y2="585" stroke="#10b981" stroke-width="0.5" stroke-dasharray="3,2"/>
<line x1="290" y1="486" x2="330" y2="585" stroke="#10b981" stroke-width="0.5" stroke-dasharray="3,2"/>
<line x1="485" y1="205" x2="485" y2="570" stroke="#3b82f6" stroke-width="0.8" stroke-dasharray="3,2" marker-end="url(#arrow-blue)"/>
<rect x="448" y="380" width="72" height="8" rx="1" fill="#0f0f1a" opacity="0.95"/>
<text x="485" y="387" text-anchor="middle" fill="#3b82f6" font-size="6">Retrieve</text>
<line x1="330" y1="675" x2="500" y2="665" stroke="#f97316" stroke-width="0.8" stroke-dasharray="4,2" marker-end="url(#arrow-orange)"/>
<rect x="370" y="656" width="90" height="8" rx="1" fill="#0f0f1a" opacity="0.95"/>
<text x="415" y="663" text-anchor="middle" fill="#f97316" font-size="6">auto-extract</text>
<rect x="660" y="130" width="280" height="120" rx="4" fill="#0f172a" stroke="#334155" stroke-width="1"/>
<text x="800" y="144" text-anchor="middle" fill="#94a3b8" font-size="9" font-weight="700" letter-spacing="0.02em">LEGEND</text>
<rect x="670" y="160" width="12" height="8" rx="1" fill="#a855f7"/>
<text x="688" y="167" fill="#64748b" font-size="8">Primary tools (conversation)</text>
<rect x="670" y="174" width="12" height="8" rx="1" fill="#10b981"/>
<text x="688" y="181" fill="#64748b" font-size="8">Memory CRUD operations</text>
<rect x="670" y="188" width="12" height="8" rx="1" fill="#3b82f6"/>
<text x="688" y="195" fill="#64748b" font-size="8">Semantic search</text>
<rect x="670" y="202" width="12" height="8" rx="1" fill="#eab308"/>
<text x="688" y="209" fill="#64748b" font-size="8">Diagnostics</text>
<rect x="670" y="216" width="12" height="8" rx="1" fill="#ef4444"/>
<text x="688" y="223" fill="#64748b" font-size="8">Profile / Dashboard UI</text>
<rect x="670" y="230" width="12" height="8" rx="1" fill="#f97316"/>
<text x="688" y="237" fill="#64748b" font-size="8">AWS AgentCore API</text>
</svg>